<?xml version="1.0" encoding="UTF-8" standalone="no"?>
<!-- Created with Inkscape (http://www.inkscape.org/) -->

<svg
   width="16mm"
   height="16mm"
   viewBox="0 0 16 16"
   version="1.1"
   id="svg1"
   inkscape:version="1.3.2 (091e20ef0f, 2023-11-25, custom)"
   sodipodi:docname="tijolo-case-sensitive-symbolic.svg"
   xmlns:inkscape="http://www.inkscape.org/namespaces/inkscape"
   xmlns:sodipodi="http://sodipodi.sourceforge.net/DTD/sodipodi-0.dtd"
   xmlns="http://www.w3.org/2000/svg"
   xmlns:svg="http://www.w3.org/2000/svg"
   xmlns:rdf="http://www.w3.org/1999/02/22-rdf-syntax-ns#"
   xmlns:cc="http://creativecommons.org/ns#">
  <sodipodi:namedview
     id="namedview1"
     pagecolor="#ffffff"
     bordercolor="#000000"
     borderopacity="0.25"
     inkscape:showpageshadow="2"
     inkscape:pageopacity="0.0"
     inkscape:pagecheckerboard="0"
     inkscape:deskcolor="#d1d1d1"
     inkscape:document-units="mm"
     inkscape:zoom="5.6301908"
     inkscape:cx="22.02412"
     inkscape:cy="28.062992"
     inkscape:window-width="1920"
     inkscape:window-height="1011"
     inkscape:window-x="0"
     inkscape:window-y="0"
     inkscape:window-maximized="1"
     inkscape:current-layer="layer1" />
  <defs
     id="defs1" />
  <g
     inkscape:label="Layer 1"
     inkscape:groupmode="layer"
     id="layer1">
    <path
       d="m 175.52614,246.72935 -0.3302,-1.0795 h -1.651 l -0.3302,1.0795 h -1.03505 l 1.6002,-4.55295 h 1.17475 l 1.60655,4.55295 z m -0.889,-2.94005 q -0.0317,-0.10795 -0.0825,-0.27305 -0.0508,-0.1651 -0.1016,-0.33655 -0.0508,-0.17145 -0.0825,-0.29845 -0.0317,0.127 -0.0889,0.3175 -0.0508,0.18415 -0.1016,0.3556 -0.0444,0.1651 -0.0698,0.23495 l -0.32385,1.0541 h 1.1811 z m 3.84175,-0.5969 q 0.6985,0 1.0668,0.3048 0.37465,0.29845 0.37465,0.92075 v 2.3114 h -0.6604 l -0.18415,-0.4699 h -0.0254 q -0.22225,0.2794 -0.4699,0.4064 -0.24765,0.127 -0.67945,0.127 -0.46355,0 -0.76835,-0.2667 -0.3048,-0.27305 -0.3048,-0.83185 0,-0.55245 0.38735,-0.8128 0.38735,-0.2667 1.16205,-0.2921 l 0.60325,-0.0191 v -0.1524 q 0,-0.27305 -0.14605,-0.40005 -0.1397,-0.127 -0.3937,-0.127 -0.254,0 -0.4953,0.0762 -0.2413,0.0699 -0.4826,0.1778 l -0.31115,-0.64135 q 0.2794,-0.14605 0.61595,-0.2286 0.3429,-0.0825 0.7112,-0.0825 z m 0.13335,1.9431 q -0.4572,0.0127 -0.635,0.1651 -0.1778,0.1524 -0.1778,0.40005 0,0.2159 0.127,0.31115 0.127,0.0889 0.3302,0.0889 0.3048,0 0.51435,-0.1778 0.20955,-0.18415 0.20955,-0.51435 v -0.28575 z"
       id="text1"
       style="font-weight:bold;font-size:6.35px;font-family:'Noto Sans';-inkscape-font-specification:'Noto Sans, Bold';white-space:pre;inline-size:133.397;fill:#2e3436;stroke-width:0.264583"
       inkscape:highlight-color="#000000"
       transform="matrix(2.0110619,0,0,2.0110619,-346.07452,-483.60175)"
       aria-label="Aa" />
  </g>
  <metadata
     id="metadata1">
    <rdf:RDF>
      <cc:License
         rdf:about="http://artlibre.org/licence/lal">
        <cc:permits
           rdf:resource="http://creativecommons.org/ns#Reproduction" />
        <cc:permits
           rdf:resource="http://creativecommons.org/ns#Distribution" />
        <cc:permits
           rdf:resource="http://creativecommons.org/ns#DerivativeWorks" />
        <cc:requires
           rdf:resource="http://creativecommons.org/ns#ShareAlike" />
        <cc:requires
           rdf:resource="http://creativecommons.org/ns#Notice" />
        <cc:requires
           rdf:resource="http://creativecommons.org/ns#Attribution" />
      </cc:License>
      <cc:Work
         rdf:about="">
        <cc:license
           rdf:resource="http://artlibre.org/licence/lal" />
      </cc:Work>
    </rdf:RDF>
  </metadata>
</svg>
