<?xml version="1.0" encoding="UTF-8" standalone="no"?>
<svg
   inkscape:version="1.1.2 (0a00cf5339, 2022-02-04, custom)"
   height="395.92282"
   width="1317.6577"
   sodipodi:docname="tijolo-banner.svg"
   version="1.1"
   viewBox="0 0 1317.6577 395.92281"
   data-name="Camada 1"
   id="Camada_1"
   xmlns:inkscape="http://www.inkscape.org/namespaces/inkscape"
   xmlns:sodipodi="http://sodipodi.sourceforge.net/DTD/sodipodi-0.dtd"
   xmlns="http://www.w3.org/2000/svg"
   xmlns:svg="http://www.w3.org/2000/svg"
   xmlns:rdf="http://www.w3.org/1999/02/22-rdf-syntax-ns#"
   xmlns:cc="http://creativecommons.org/ns#"
   xmlns:dc="http://purl.org/dc/elements/1.1/">
  <metadata
     id="metadata75">
    <rdf:RDF>
      <cc:Work
         rdf:about="">
        <dc:format>image/svg+xml</dc:format>
        <dc:type
           rdf:resource="http://purl.org/dc/dcmitype/StillImage" />
      </cc:Work>
    </rdf:RDF>
  </metadata>
  <sodipodi:namedview
     inkscape:current-layer="Camada_1"
     inkscape:window-maximized="1"
     inkscape:window-y="0"
     inkscape:window-x="0"
     inkscape:cy="199.62797"
     inkscape:cx="209.88283"
     inkscape:zoom="0.73136044"
     showgrid="false"
     id="namedview73"
     inkscape:window-height="1011"
     inkscape:window-width="1920"
     inkscape:pageshadow="2"
     inkscape:pageopacity="0"
     guidetolerance="10"
     gridtolerance="10"
     objecttolerance="10"
     borderopacity="1"
     bordercolor="#666666"
     pagecolor="#ffffff"
     inkscape:pagecheckerboard="0"
     fit-margin-top="0"
     fit-margin-left="0"
     fit-margin-right="0"
     fit-margin-bottom="0">
    <sodipodi:guide
       id="guide77"
       orientation="0,348.26999"
       position="-28.046057,391.84145" />
    <sodipodi:guide
       id="guide79"
       orientation="395.92001,0"
       position="343.91343,391.84145" />
    <sodipodi:guide
       id="guide81"
       orientation="0,-348.26999"
       position="320.22393,-4.0785558" />
    <sodipodi:guide
       id="guide83"
       orientation="-395.92001,0"
       position="-28.046057,-4.0785558" />
  </sodipodi:namedview>
  <defs
     id="defs12">
    <style
       id="style10">.cls-1{fill:#b8b8b8;}.cls-2{fill:#d68505;}.cls-3{fill:#eda126;}.cls-4{fill:none;stroke:#000;stroke-miterlimit:10;stroke-width:5.47px;}.cls-5{fill:#d98706;}.cls-6{fill:#b06e05;}.cls-7{fill:#c77c05;}</style>
  </defs>
  <g
     id="g8984"
     transform="translate(-28.046057,0.00137693)">
    <g
       id="g8952">
      <path
         id="path14"
         d="M 368.4,57 134.65,0.64 A 19.49,19.49 0 0 0 126.51,0.26 L 40.68,13.82 a 15,15 0 0 0 -12.3,11.48 0.5,0.5 0 0 0 0,0.12 c 0,0.23 -0.1,0.47 -0.14,0.75 v 0.11 c -0.05,0.29 -0.09,0.58 -0.13,0.87 0,0 0,0.08 0,0.12 a 15.14,15.14 0 0 0 0,2.78 l 0.06,0.6 0.14,1.5 0.41,4.35 2.84,29.79 0.49,5 0.11,1.31 1.59,16.34 0.49,5.36 0.11,1 3.06,32.52 0.6,5.8 0.05,0.76 1.21,13.53 0.6,6.18 0.06,0.54 2.46,25.75 0.6,6.18 0.05,0.71 1.23,13.17 0.6,6.72 0.06,0.5 3,31.32 a 14.88,14.88 0 0 0 6,10.5 l 194.2,146.44 a 20,20 0 0 0 7.77,-1.47 c 1.86,-0.77 3.77,-1.81 6,-3 l 84.51,-45.92 a 5.68,5.68 0 0 0 3,-4.37 0.52,0.52 0 0 0 0.11,-0.38 l 0.33,-4.1 c 0.06,-0.44 0.11,-1 0.16,-1.64 0.06,-0.88 0.17,-1.86 0.28,-3 0.11,-1.47 0.33,-3.17 0.49,-5.08 a 3.38,3.38 0 0 1 0.06,-0.77 c 0.05,-0.76 0.16,-1.58 0.21,-2.4 l 0.5,-5.25 c 0.1,-0.93 0.16,-1.86 0.27,-2.79 0.11,-0.93 0.16,-1.91 0.27,-2.89 0.11,-0.98 0.22,-2 0.28,-3 l 21.53,-242 a 8.42,8.42 0 0 1 0.93,-2.57 c 0.89,-2 1.22,-4.46 -6.43,-8.29 z m -118.46,103.75 3.66,1.59 -1.75,4 -2,-0.87 z m 0.71,191.44 -4.76,-3.33 -3.44,-2.46 c 0,-2 0.05,-4 0.05,-6.18 l 3.5,2.46 7.6,5.36 z m 0.33,-32.8 -4.54,-2.9 -3.5,-2.24 c 0.06,-1.86 0.06,-3.77 0.11,-5.68 l 3.44,2.18 7.11,4.54 z m 0.11,-38.26 -3.94,-2.35 -3.44,-2.08 c 0,-1.92 0,-3.83 0.11,-5.8 l 3.45,2.1 6.34,3.83 z m 0.22,-32.8 -3.45,-1.86 -3.5,-1.86 c 0.06,-1.8 0.11,-3.61 0.11,-5.41 l 3.5,1.91 5.63,3 z m 5.74,-49.2 -8,-3.77 -3.49,-1.64 c 0.05,-1.7 0.11,-3.39 0.16,-5 l 3.44,1.64 9.9,4.64 z M 266.27,98.3 a 8.82,8.82 0 0 1 -2.45,2.79 l -0.06,0.05 a 8,8 0 0 1 -1.27,0.75 c -0.22,0.11 -0.45,0.21 -0.68,0.3 a 9,9 0 0 1 -1.21,0.39 10.52,10.52 0 0 1 -1.83,0.23 c -0.15,0 -0.26,0.06 -0.42,0.06 h -0.08 a 8.55,8.55 0 0 1 -7.58,-4 10.24,10.24 0 0 1 -1.51,-5.33 9.93,9.93 0 0 1 2.64,-7 v 0 c 0.07,-0.08 0.17,-0.15 0.25,-0.24 l 0.06,-0.05 c 0.27,-0.24 0.54,-0.48 0.84,-0.7 0.08,-0.05 0.14,-0.12 0.21,-0.17 a 9.84,9.84 0 0 1 1,-0.62 l 0.42,-0.18 a 9.26,9.26 0 0 1 3.86,-0.85 c 8.43,0.03 11.02,9 7.81,14.57 z"
         class="cls-1" />
      <path
         id="path16"
         d="M 368.4,57 134.65,0.64 A 19.49,19.49 0 0 0 126.51,0.26 L 40.68,13.82 a 15,15 0 0 0 -12.3,11.48 0.5,0.5 0 0 0 0,0.12 c 0,0.23 -0.1,0.47 -0.14,0.75 v 0.11 c -0.05,0.29 -0.09,0.58 -0.13,0.87 0,0 0,0.08 0,0.12 a 15.14,15.14 0 0 0 0,2.78 l 0.06,0.6 0.14,1.5 0.41,4.35 2.84,29.79 0.49,5 0.11,1.31 1.59,16.34 0.49,5.36 0.11,1 3.06,32.52 0.6,5.8 0.05,0.76 1.21,13.53 0.6,6.18 0.06,0.54 2.46,25.75 0.6,6.18 0.05,0.71 1.23,13.17 0.6,6.72 0.06,0.5 3,31.32 a 14.88,14.88 0 0 0 6,10.5 l 194.2,146.44 a 20,20 0 0 0 7.77,-1.47 c 1.86,-0.77 3.77,-1.81 6,-3 l 84.51,-45.92 a 5.68,5.68 0 0 0 3,-4.37 0.52,0.52 0 0 0 0.11,-0.38 l 0.33,-4.1 c 0.06,-0.44 0.11,-1 0.16,-1.64 0.06,-0.88 0.17,-1.86 0.28,-3 0.11,-1.47 0.33,-3.17 0.49,-5.08 a 3.38,3.38 0 0 1 0.06,-0.77 c 0.05,-0.76 0.16,-1.58 0.21,-2.4 l 0.5,-5.25 c 0.1,-0.93 0.16,-1.86 0.27,-2.79 0.11,-0.93 0.16,-1.91 0.27,-2.89 0.11,-0.98 0.22,-2 0.28,-3 l 21.53,-242 a 8.42,8.42 0 0 1 0.93,-2.57 c 0.89,-2 1.22,-4.46 -6.43,-8.29 z m -118.46,103.75 3.66,1.59 -1.75,4 -2,-0.87 z m 0.71,191.44 -4.76,-3.33 -3.44,-2.46 c 0,-2 0.05,-4 0.05,-6.18 l 3.5,2.46 7.6,5.36 z m 0.33,-32.8 -4.54,-2.9 -3.5,-2.24 c 0.06,-1.86 0.06,-3.77 0.11,-5.68 l 3.44,2.18 7.11,4.54 z m 0.11,-38.26 -3.94,-2.35 -3.44,-2.08 c 0,-1.92 0,-3.83 0.11,-5.8 l 3.45,2.1 6.34,3.83 z m 0.22,-32.8 -3.45,-1.86 -3.5,-1.86 c 0.06,-1.8 0.11,-3.61 0.11,-5.41 l 3.5,1.91 5.63,3 z m 5.74,-49.2 -8,-3.77 -3.49,-1.64 c 0.05,-1.7 0.11,-3.39 0.16,-5 l 3.44,1.64 9.9,4.64 z M 266.27,98.3 a 8.82,8.82 0 0 1 -2.45,2.79 l -0.06,0.05 a 8,8 0 0 1 -1.27,0.75 c -0.22,0.11 -0.45,0.21 -0.68,0.3 a 9,9 0 0 1 -1.21,0.39 10.52,10.52 0 0 1 -1.83,0.23 c -0.15,0 -0.26,0.06 -0.42,0.06 h -0.08 a 8.55,8.55 0 0 1 -7.58,-4 10.24,10.24 0 0 1 -1.51,-5.33 9.93,9.93 0 0 1 2.64,-7 v 0 c 0.07,-0.08 0.17,-0.15 0.25,-0.24 l 0.06,-0.05 c 0.27,-0.24 0.54,-0.48 0.84,-0.7 0.08,-0.05 0.14,-0.12 0.21,-0.17 a 9.84,9.84 0 0 1 1,-0.62 l 0.42,-0.18 a 9.26,9.26 0 0 1 3.86,-0.85 c 8.43,0.03 11.02,9 7.81,14.57 z"
         class="cls-2" />
      <path
         id="path18"
         d="m 376.27,65.71 c -2,28.86 -17,180 -23.6,244.63 -0.06,1 -0.17,2 -0.29,3 -0.12,1 -0.17,2 -0.28,2.93 -0.11,0.93 -0.17,1.88 -0.28,2.82 l -0.51,5.31 c 0,0.83 -0.17,1.66 -0.22,2.43 a 3.42,3.42 0 0 0 -0.06,0.78 c -0.17,1.93 -0.4,3.65 -0.51,5.14 -0.11,1.11 -0.22,2.1 -0.28,3 -0.06,0.66 -0.11,1.21 -0.17,1.65 -0.17,1.5 -0.28,2.27 -0.28,2.27 a 11.76,11.76 0 0 1 -0.17,2.27 14.78,14.78 0 0 1 -7.57,11.17 c -7.17,4 -63.12,31.63 -78.76,39.43 a 31.27,31.27 0 0 1 -10.22,3.31 c -11.51,1.11 -10.55,-11.72 -10.55,-11.72 -0.06,-8.35 0,-20.18 0.22,-34.39 l 0.11,-6.25 c 0.12,-8.19 0.23,-17.09 0.46,-26.49 l 0.05,-5.81 c 0.23,-10.34 0.45,-21.23 0.68,-32.35 l 0.11,-5.86 c 0.17,-8.85 0.4,-17.8 0.62,-26.82 l 0.12,-5.42 c 0.39,-15.7 0.79,-31.35 1.13,-46.28 l 0.11,-5.09 c 0.22,-8.73 0.45,-17.14 0.68,-25.16 l 0.11,-4.75 c 1,-34.9 1.69,-61.05 1.81,-66.47 0,-0.67 0,-1 0,-1 a 18,18 0 0 1 0.4,-3.37 c 0.68,-3.1 2.48,-7.35 7.34,-7.69 7.79,-0.6 107.27,-21.62 107.27,-21.62 0,0 10,-1.82 12.08,3.65 a 6.08,6.08 0 0 1 0.45,2.75 z"
         class="cls-3" />
      <path
         id="path20"
         d="M 362.97,61.78"
         class="cls-4" />
      <path
         id="path22"
         d="m 277.05,163.78 20.86,-5.64 c 0.11,0 0.22,-0.07 0.33,-0.12 1.37,-0.55 9.65,-4.29 9.65,-14.34 0,-10.47 1,-37.25 1.08,-39.63 v -0.33 c 0.2,-1.5 1.45,-13.47 -9.31,-10.22 -10.1,3 -18.93,5.19 -20.9,5.67 -0.3,0.07 -0.55,0.25 -0.85,0.34 -2.84,0.91 -8.31,5.53 -8.31,13 v 42 a 2.44,2.44 0 0 1 0,0.27 c -0.09,1.08 -0.54,9.41 6.8,9.13 a 2.76,2.76 0 0 0 0.65,-0.13 z"
         class="cls-5" />
      <path
         id="path24"
         d="m 275.38,244 21.94,-10.29 c 1.32,-0.56 7.73,-4.95 7.73,-15 0,-10.47 1,-32.06 1.05,-34.44 0,-0.11 0,-0.21 0,-0.32 0.19,-1.51 1.4,-13.47 -9,-10.23 -9.71,3.05 -18.21,5.2 -20.11,5.67 a 8.24,8.24 0 0 0 -0.81,0.35 c -2.74,0.9 -8,5.53 -8,13 v 42 a 2.26,2.26 0 0 1 0,0.26 c -0.09,1.08 -0.52,9.42 6.54,9.14 a 2.61,2.61 0 0 0 0.66,-0.14 z"
         class="cls-5" />
      <path
         id="path26"
         d="m 273.56,315.75 21.45,-9.42 c 1.31,-0.52 7.87,-5 7.87,-14.54 0,-9.91 0.95,-30.36 1,-32.61 0,-0.1 0,-0.2 0,-0.31 0.19,-1.42 1.17,-13.37 -8.85,-9.68 -8.9,3.28 -14.37,5.46 -20.38,8.19 -3.59,1.63 -7.65,3.28 -8.2,9.83 v 39.73 a 2,2 0 0 1 0,0.25 c -0.09,1 -0.52,8.92 6.46,8.65 a 3.11,3.11 0 0 0 0.65,-0.09 z"
         class="cls-5" />
      <path
         id="path28"
         d="m 272.36,376.32 22.41,-11.16 c 1.25,-0.45 5.5,-3.46 5.75,-9.72 0.34,-8.63 0.91,-26.45 1,-28.42 v -0.27 c 0.18,-1.24 1.12,-11.65 -8.5,-8.44 -8.55,2.86 -13.27,5.25 -19,7.63 a 14.72,14.72 0 0 0 -8.4,11.54 v 31.17 a 1.7,1.7 0 0 1 0,0.22 c -0.08,0.89 -0.49,7.77 6.21,7.53 a 2.18,2.18 0 0 0 0.53,-0.08 z"
         class="cls-5" />
      <path
         id="path30"
         d="m 328.99,147.45 22.55,-6.66 a 12.26,12.26 0 0 0 8.28,-10.72 c 1,-9.63 2.35,-34.38 2.52,-36.57 0,-0.1 0,-0.2 0,-0.3 0.25,-1.39 1.91,-12.39 -8.71,-9.81 -10,2.42 -18.65,4.06 -20.6,4.42 -0.29,0.06 -0.55,0.22 -0.84,0.29 -2.8,0.73 -8.31,4.79 -8.58,11.71 l -1.55,38.76 a 2,2 0 0 1 0,0.25 c -0.13,1 -0.88,8.67 6.29,8.7 a 2.56,2.56 0 0 0 0.64,-0.07 z"
         class="cls-5" />
      <path
         id="path32"
         d="m 327.87,165.75 c -2.34,1 -6.71,4.72 -6.71,14.32 0,10 -0.84,30.61 -0.91,32.89 0,0.1 0,0.2 0,0.3 -0.17,1.44 -1.21,12.87 7.78,9.77 8.44,-2.91 18.63,-7.17 18.87,-7.25 2.38,-0.87 6,-5.2 6.25,-10.92 0,0 3.6,-39.76 3.6,-39.84 0.08,-1 0.11,-8.35 -6,-8.08 -0.22,0.06 -22.79,8.77 -22.88,8.81 z"
         class="cls-5" />
      <path
         id="path34"
         d="m 356.75,165 c 0,0 -0.05,0.49 -0.11,1.37 L 321.06,189 c 0.05,-3.34 0.11,-6.51 0.11,-9 0,-9.57 4.37,-13.28 6.72,-14.32 0,0 22.63,-8.8 22.8,-8.8 6.17,-0.23 6.12,7.12 6.06,8.12 z"
         class="cls-6" />
      <path
         id="path36"
         d="m 316.27,351.21 c 0,0 18.83,-9.63 18.92,-9.66 1,-0.39 4.67,-3 5.06,-8.78 0.53,-7.92 1.53,-24.29 1.65,-26.1 v -0.24 c 0.19,-1.14 1.06,-11.44 -6.8,-8 -7.57,3.32 -9,3.83 -16.34,8 -2.77,1.58 -5.42,3.39 -6,8.63 L 310.92,344 a 1.41,1.41 0 0 1 0,0.2 c -0.1,0.82 -0.64,7.12 4.92,7.09 a 2.52,2.52 0 0 0 0.43,-0.08 z"
         class="cls-5" />
      <path
         id="path38"
         d="m 338.92,283.35 c 1.1,-0.41 5.54,-3 6.4,-10 1.2,-9.65 3,-30 3.31,-32.23 0,-0.1 0,-0.2 0,-0.3 0.28,-1.38 2,-13.91 -6.3,-10.13 -8,3.63 -9.53,4.17 -17.35,8.85 -3,1.78 -5.81,3.84 -6.86,10.2 0,0 -2.8,34.81 -2.8,34.89 0,2.31 -1.66,11 2.94,9.49 0.21,-0.04 20.57,-10.74 20.66,-10.77 z"
         class="cls-5" />
      <path
         id="path40"
         d="m 304.06,256.58 -37.56,25 v -14.39 c 0.55,-6.51 4.65,-8.2 8.2,-9.79 6,-2.73 11.48,-4.92 20.39,-8.2 7.76,-2.9 8.91,3.66 8.97,7.38 z"
         class="cls-6" />
      <path
         id="path42"
         d="m 308.98,103.74 v 0.33 a 1,1 0 0 1 -0.06,0.38 l -39.3,30.61 v -22.52 c 0,-7.49 5.46,-12.14 8.31,-13 0.32,-0.11 0.54,-0.27 0.87,-0.38 2,-0.44 10.77,-2.63 20.88,-5.63 10.77,-3.29 9.52,8.68 9.3,10.21 z"
         class="cls-6" />
      <path
         id="path44"
         d="m 306.02,179 -37.75,29.37 v -15.69 c 0,-7.44 5.25,-12.08 8,-13 0.28,-0.06 0.55,-0.27 0.82,-0.33 1.92,-0.49 10.39,-2.62 20.12,-5.68 6.35,-1.98 8.32,1.79 8.81,5.33 z"
         class="cls-6" />
      <path
         id="path46"
         d="m 300.83,320.7 -35.26,23.51 v -6.72 A 14.74,14.74 0 0 1 273.99,326 c 5.8,-2.4 10.5,-4.75 19,-7.65 4.73,-1.64 6.91,0.06 7.84,2.35 z"
         class="cls-6" />
      <path
         id="path48"
         d="m 362.38,93.19 c 0,0.11 -0.05,0.22 -0.05,0.33 0,0.11 -0.06,0.54 -0.06,1 l -39.63,30.83 1,-25.59 c 0.27,-6.88 5.79,-11 8.58,-11.69 0.33,-0.06 0.55,-0.22 0.87,-0.28 1.92,-0.38 10.61,-2 20.61,-4.43 10.57,-2.58 8.96,8.46 8.68,9.83 z"
         class="cls-6" />
      <path
         id="path50"
         d="m 348.83,234.28 -31.33,23.5 c 0.39,-4.64 0.66,-8 0.66,-8 1,-6.34 3.94,-8.42 6.89,-10.22 7.81,-4.65 9.35,-5.2 17.33,-8.86 4.37,-2 5.96,0.52 6.45,3.58 z"
         class="cls-6" />
      <path
         id="path52"
         d="m 45.33,201.21 197.94,139.01 c 0,2.13 0,4.15 0,6.18 L 45.99,207.93 l -1.1,-0.77 -0.6,-6.72 1,0.71 z"
         class="cls-6" />
      <path
         id="path54"
         d="m 43.47,181.09 199.58,127.48 c 0,1.91 0,3.82 -0.11,5.68 l -198.92,-127 -1,-0.65 -0.6,-6.18 z"
         class="cls-6" />
      <path
         id="path56"
         d="M 40.46,148.62 243.82,270.9 c -0.06,2 -0.11,3.88 -0.11,5.8 l -202.7,-121.9 -1.15,-0.71 -0.6,-6.18 z"
         class="cls-6" />
      <path
         id="path58"
         d="m 244.47,239.2 c 0,1.8 -0.05,3.61 -0.11,5.41 L 39.1,134.19 l -1.15,-0.6 -0.6,-5.8 1.2,0.66 z"
         class="cls-6" />
      <path
         id="path60"
         d="m 245.73,188.69 c -0.05,1.64 -0.11,3.33 -0.16,5 L 35.43,94.88 l -1.25,-0.6 -0.49,-5.36 1.25,0.61 z"
         class="cls-6" />
      <path
         id="path62"
         d="m 32.81,66.9 213.63,92.32 c 0,1.53 -0.11,3.12 -0.11,4.71 L 33.27,71.81 l -1.31,-0.54 -0.49,-5 z"
         class="cls-6" />
      <path
         id="path64"
         d="m 248.53,93.36 -0.13,4.85 -219.13,-67.74 -0.42,-0.12 -0.33,-0.1 -0.12,-1.5 -0.06,-0.6 a 16,16 0 0 1 0.05,-2.78 v 0 l 0.44,0.13 z"
         class="cls-6" />
      <polygon
         transform="translate(28)"
         id="polygon66"
         points="13.95,13.62 25.04,11.87 241.08,78.22 230.99,80.33 "
         class="cls-7" />
      <polygon
         transform="translate(28)"
         id="polygon68"
         points="80.87,3.05 93.04,1.12 329.15,59.78 318.23,62.06 318.22,62.06 "
         class="cls-7" />
      <path
         id="path70"
         d="m 341.35,300.08 -29,21.23 0.41,-6.23 c 0.61,-5.24 3.26,-7.05 6,-8.63 7.32,-4.17 8.77,-4.68 16.34,-8 3.63,-1.57 5.39,-0.31 6.25,1.63 z"
         class="cls-6" />
    </g>
  </g>
  <text
     xml:space="preserve"
     style="font-style:normal;font-variant:normal;font-weight:normal;font-stretch:normal;font-size:265.624px;line-height:1.25;font-family:'JetBrainsMonoExtraBold Nerd Font Mono';-inkscape-font-specification:'JetBrainsMonoExtraBold Nerd Font Mono, Normal';font-variant-ligatures:normal;font-variant-caps:normal;font-variant-numeric:normal;font-variant-east-asian:normal;letter-spacing:0px;word-spacing:0px;fill:#d68505;fill-opacity:1;stroke:none;stroke-width:6.64058"
     x="374.16077"
     y="285.47086"
     id="text1965"><tspan
       sodipodi:role="line"
       id="tspan1963"
       x="374.16077"
       y="285.47086"
       style="fill:#d68505;fill-opacity:1;stroke-width:6.64058">Tijolo</tspan></text>
</svg>
