<?xml version="1.0" encoding="UTF-8" standalone="no"?>
<svg
   id="Camada_1"
   viewBox="0 0 902.79 902.79"
   version="1.1"
   sodipodi:docname="tijolo.svg"
   inkscape:version="1.3.2 (091e20ef0f, 2023-11-25, custom)"
   xmlns:inkscape="http://www.inkscape.org/namespaces/inkscape"
   xmlns:sodipodi="http://sodipodi.sourceforge.net/DTD/sodipodi-0.dtd"
   xmlns="http://www.w3.org/2000/svg"
   xmlns:svg="http://www.w3.org/2000/svg">
  <sodipodi:namedview
     id="namedview5"
     pagecolor="#ffffff"
     bordercolor="#000000"
     borderopacity="0.25"
     inkscape:showpageshadow="2"
     inkscape:pageopacity="0.0"
     inkscape:pagecheckerboard="0"
     inkscape:deskcolor="#d1d1d1"
     inkscape:zoom="0.8750651"
     inkscape:cx="450.8236"
     inkscape:cy="451.39499"
     inkscape:window-width="1920"
     inkscape:window-height="1011"
     inkscape:window-x="0"
     inkscape:window-y="0"
     inkscape:window-maximized="1"
     inkscape:current-layer="Camada_1" />
  <defs
     id="defs1">
    <style
       id="style1">.cls-1{fill:#ffcc5c;}.cls-1,.cls-2,.cls-3{stroke-width:0px;}.cls-2{fill:#fd971f;}.cls-3{fill:#c9730c;}</style>
  </defs>
  <g
     id="g5"
     transform="matrix(1.3801334,0,0,1.3801334,-181.14251,-139.8614)">
    <path
       class="cls-2"
       d="M 692.56,216.42 H 253.21 c -7.64,0 -14.5,3.38 -19.16,8.73 h -0.01 l -30.79,35.09 -11.99,13.67 h 450.86 z"
       id="path1" />
    <path
       class="cls-3"
       d="m 712.81,595.05 41.01,-45.11 c 0,0 0.02,-0.03 0.03,-0.04 h 0.01 c 1.58,-1.78 2.93,-3.79 3.96,-5.96 1.59,-3.32 2.48,-7.03 2.48,-10.95 V 285.07 l -47.49,54.13 z"
       id="path2" />
    <path
       class="cls-2"
       d="M 662.84,298.42 H 181.21 c -14.03,0 -25.46,11.42 -25.46,25.46 v 291.11 c 0,14.04 11.43,25.46 25.46,25.46 h 481.63 c 14.04,0 25.46,-11.42 25.46,-25.46 V 323.88 c 0,-14.04 -11.42,-25.46 -25.46,-25.46 z"
       id="path3" />
    <path
       class="cls-3"
       d="m 734.84,216.42 h -9.67 l -51.48,58.68 c 16.4,3.64 29.79,15.37 35.76,30.76 L 760.3,247.9 v -6.02 c 0,-14.04 -11.42,-25.46 -25.46,-25.46 z"
       id="path4" />
    <rect
       class="cls-3"
       x="268.5"
       y="298.37"
       width="14.7"
       height="343.63"
       id="rect4" />
    <polygon
       class="cls-3"
       points="504.5,298.37 519.2,298.37 519.2,531.84 690.5,531.84 690.5,546.53 519.2,546.53 519.2,642 504.5,642 "
       id="polygon4" />
    <path
       class="cls-1"
       d="M 734.84,191.91 H 253.21 c -14.85,0 -28.22,6.52 -37.37,16.84 -0.04,0.04 -0.07,0.08 -0.11,0.12 h -0.01 c 0,0 -70.86,80.76 -70.86,80.76 -8.44,8.95 -13.61,21 -13.61,34.25 v 291.11 c 0,27.56 22.41,49.97 49.96,49.97 h 481.63 c 18.59,0 34.85,-10.21 43.45,-25.31 L 764.8,572.96 C 776.5,562 784.81,549.32 784.81,532.99 V 241.88 c 0,-27.55 -22.42,-49.97 -49.97,-49.97 z m -531.59,68.33 30.79,-35.09 h 0.01 c 4.66,-5.35 11.52,-8.73 19.16,-8.73 h 439.35 l -50.44,57.49 H 191.26 Z M 688.3,507.65 H 505.7 V 298.42 h 157.14 c 14.04,0 25.46,11.42 25.46,25.46 z m -443.86,132.8 h -63.23 c -14.03,0 -25.46,-11.42 -25.46,-25.46 V 323.88 c 0,-14.04 11.43,-25.46 25.46,-25.46 h 63.23 z m 236.75,0 H 268.95 V 298.42 H 481.19 Z M 688.3,614.99 c 0,14.04 -11.42,25.46 -25.46,25.46 H 505.7 V 532.16 h 182.6 z m 72,-82 c 0,3.92 -0.89,7.63 -2.48,10.95 -1.03,2.17 -2.38,4.18 -3.96,5.96 h -0.01 c 0,0 -0.02,0.03 -0.03,0.04 l -41.01,45.11 V 339.2 l 47.49,-54.13 z m 0,-285.09 -50.85,57.96 c -5.97,-15.39 -19.36,-27.12 -35.76,-30.76 l 51.48,-58.68 h 9.67 c 14.04,0 25.46,11.42 25.46,25.46 z"
       id="path5" />
  </g>
</svg>
